<?xml version="1.0" encoding="utf-8"?>
<!-- Generator: Adobe Illustrator 27.9.3, SVG Export Plug-In . SVG Version: 9.03 Build 53313)  -->
<svg version="1.1" id="blender_original" xmlns="http://www.w3.org/2000/svg" xmlns:xlink="http://www.w3.org/1999/xlink" x="0px"
	 y="0px" viewBox="0 0 1644.1 283.46" style="enable-background:new 0 0 1644.1 283.46;" xml:space="preserve">
<style type="text/css">
	.st0{fill:#DA010B;}
	.st1{fill:#FFFFFF;}
</style>
<rect class="st0" width="283.46" height="283.46"/>
<rect  x="340.16" y="0.0" class="st0" width="283.46" height="283.46"/>
<rect x="680.32" class="st0" width="283.46" height="283.46"/>
<rect x="1020.47" class="st0" width="283.46" height="283.46"/>
<rect x="1360.63" class="st0" width="283.46" height="283.46"/>
<path class="st1" d="M205.01,167.24v11.58c0,5.16-0.98,10.57-4.18,15.24c-3.19,4.18-12.53,14.74-17.94,17.94
	c-4.18,2.46-10.32,4.67-16.22,4.67H116.8c-6.14,0-12.04-2.21-16.22-4.67c-5.41-3.2-14.99-13.76-17.94-17.94
	c-3.19-4.67-4.18-10.08-4.18-15.24v-73.96c0-5.41,0.98-10.81,4.18-15.48c2.95-3.93,12.53-14.5,17.94-17.69
	c4.18-2.46,10.08-4.67,16.22-4.67h49.87c5.9,0,12.04,2.21,16.22,4.67c5.41,3.19,14.74,13.76,17.94,17.69
	c3.19,4.67,4.18,10.07,4.18,15.48v11.35l-29.98-0.02v-11.34c-1.72-2.95-6.39-7.62-8.85-9.09h-48.64c-1.97,1.47-6.14,5.16-9.09,9.34
	v73.72c2.7,3.69,6.88,7.86,8.85,9.09h48.64c1.97-1.47,6.39-5.65,9.09-9.09v-11.58H205.01z"/>
<path class="st1" d="M1561.46,194.06c-3.19,4.18-12.53,14.74-17.94,17.94c-4.18,2.46-10.32,4.67-16.22,4.67h-49.87
	c-6.14,0-12.04-2.21-16.22-4.67c-5.41-3.2-14.99-13.76-17.94-17.94c-3.19-4.67-4.18-10.08-4.18-15.24v-73.96
	c0-5.41,0.98-10.81,4.18-15.48c2.95-3.93,12.53-14.5,17.94-17.69c4.18-2.46,10.07-4.67,16.22-4.67h49.87
	c5.9,0,12.04,2.21,16.22,4.67c5.41,3.19,14.75,13.76,17.94,17.69c3.2,4.67,4.18,10.07,4.18,15.48v73.96
	C1565.64,183.98,1564.65,189.39,1561.46,194.06z M1535.66,104.86c-1.72-2.95-6.39-7.62-8.85-9.09h-48.64
	c-1.97,1.47-6.14,5.16-9.09,9.34v73.72c2.7,3.69,6.88,7.86,8.85,9.09h48.64c1.96-1.47,6.39-5.65,9.09-9.09V104.86z"/>
<path class="st1" d="M509.72,215.43l-36.61-56.27h-17.94v56.27h-29.98V68h71.75c6.39,0,13.76,1.97,18.68,5.65
	c3.19,2.21,10.57,10.08,13.02,13.52c2.95,4.67,4.67,10.81,4.67,16.22v20.89c0,5.9-1.47,11.3-4.67,15.97
	c-1.97,3.44-9.34,11.06-13.02,13.27c-4.67,2.7-6.88,3.44-8.36,4.18c-0.25,0.25-0.49,0-0.74,0.25c12.04,17.94,26.05,39.32,38.09,57.5
	H509.72z M503.33,102.64c-1.23-1.97-4.18-4.91-6.39-5.9h-41.77v33.67h41.77c0.98,0,4.91-3.44,6.39-5.9V102.64z"/>
<path class="st1" d="M857.69,215.43l-9.83-28.26H796.5c-3.19,9.09-6.88,19.17-10.07,28.26h-31.94L805.59,68h33.18l50.87,147.44
	H857.69z M822.06,107.72c-5.41,15.73-11.06,34.98-16.47,50.7h33.18L822.06,107.72z"/>
<path class="st1" d="M1126.94,215.43h-29.98V68h32.68l32.93,66.84c10.81-22.12,21.62-44.97,32.44-66.84h32.44v147.44h-29.98
	l-0.01-91.73l-1.73,6.77l0,0c-7.83,16.69-16.03,33.37-23.81,49.83h-19.66l-23.63-49.83l-0.01,0l-1.65-6.77L1126.94,215.43z"/>
</svg>
